<svg width="111" height="31" viewBox="0 0 111 31" fill="none" xmlns="http://www.w3.org/2000/svg">
<g clip-path="url(#clip0_2995_9427)">
<path d="M10.1594 15.7133V14.3346H13.1739V26.0187H10.1594V24.6399C9.25579 25.7772 7.98612 26.3458 6.35035 26.3458C4.79247 26.3458 3.45269 25.7538 2.33102 24.5698C1.22492 23.3703 0.671875 21.9059 0.671875 20.1766C0.671875 18.463 1.22492 17.0063 2.33102 15.8068C3.45269 14.6072 4.79247 14.0074 6.35035 14.0074C7.98612 14.0074 9.25579 14.576 10.1594 15.7133ZM4.59773 22.5602C5.2053 23.1677 5.97646 23.4715 6.91118 23.4715C7.84591 23.4715 8.61706 23.1677 9.22463 22.5602C9.84779 21.937 10.1594 21.1425 10.1594 20.1766C10.1594 19.2107 9.84779 18.424 9.22463 17.8164C8.61706 17.1933 7.84591 16.8817 6.91118 16.8817C5.97646 16.8817 5.2053 17.1933 4.59773 17.8164C3.99016 18.424 3.68637 19.2107 3.68637 20.1766C3.68637 21.1425 3.99016 21.937 4.59773 22.5602Z" fill="black"/>
<path d="M22.4035 14.0074C23.6966 14.0074 24.7482 14.4358 25.5583 15.2927C26.3995 16.1651 26.8201 17.3491 26.8201 18.8446V26.0187H23.8056V19.2185C23.8056 18.4552 23.5953 17.8632 23.1747 17.4425C22.7696 17.0219 22.2088 16.8116 21.4922 16.8116C20.6977 16.8116 20.0667 17.0609 19.5994 17.5594C19.1476 18.0423 18.9217 18.7589 18.9217 19.7093V26.0187H15.9072V14.3346H18.9217V15.6432C19.6383 14.5527 20.7989 14.0074 22.4035 14.0074Z" fill="black"/>
<path d="M36.0777 14.3346V17.2322H33.4371V22.0928C33.4371 22.4979 33.5384 22.7939 33.7409 22.9808C33.9434 23.1677 34.2394 23.2768 34.6289 23.308C35.0184 23.3235 35.5013 23.3157 36.0777 23.2846V26.0187C34.0369 26.2523 32.5803 26.0654 31.7079 25.4578C30.851 24.8347 30.4226 23.713 30.4226 22.0928V17.2322H28.3896V14.3346H30.4226V11.9744L33.4371 11.063V14.3346H36.0777Z" fill="black"/>
<path d="M47.7929 24.5698C46.609 25.7538 45.1445 26.3458 43.3997 26.3458C41.6549 26.3458 40.1905 25.7538 39.0065 24.5698C37.8225 23.3859 37.2305 21.9214 37.2305 20.1766C37.2305 18.4474 37.8225 16.9908 39.0065 15.8068C40.2061 14.6072 41.6705 14.0074 43.3997 14.0074C45.129 14.0074 46.5934 14.6072 47.7929 15.8068C48.9925 17.0063 49.5923 18.463 49.5923 20.1766C49.5923 21.9059 48.9925 23.3703 47.7929 24.5698ZM41.133 22.4901C41.7406 23.0976 42.4962 23.4014 43.3997 23.4014C44.3033 23.4014 45.0589 23.0976 45.6664 22.4901C46.274 21.8825 46.5778 21.1113 46.5778 20.1766C46.5778 19.2419 46.274 18.4707 45.6664 17.8632C45.0589 17.2556 44.3033 16.9518 43.3997 16.9518C42.4962 16.9518 41.7406 17.2556 41.133 17.8632C40.541 18.4863 40.245 19.2575 40.245 20.1766C40.245 21.0958 40.541 21.8669 41.133 22.4901Z" fill="black"/>
<path d="M58.2092 14.0074C59.5023 14.0074 60.5538 14.4358 61.3639 15.2927C62.2052 16.1651 62.6258 17.3491 62.6258 18.8446V26.0187H59.6113V19.2185C59.6113 18.4552 59.401 17.8632 58.9804 17.4425C58.5753 17.0219 58.0145 16.8116 57.2979 16.8116C56.5033 16.8116 55.8724 17.0609 55.405 17.5594C54.9532 18.0423 54.7274 18.7589 54.7274 19.7093V26.0187H51.7129V14.3346H54.7274V15.6432C55.444 14.5527 56.6046 14.0074 58.2092 14.0074Z" fill="black"/>
<path d="M69.9729 22.1863L72.5668 14.3346H75.7916L71.5386 26.0187C70.931 27.7012 70.1209 28.9163 69.1083 29.6641C68.1112 30.4275 66.8649 30.7702 65.3694 30.6923V27.8881C66.1639 27.9037 66.8026 27.7323 67.2856 27.374C67.7685 27.0157 68.1502 26.4393 68.4306 25.6448L63.6401 14.3346H66.935L69.9729 22.1863Z" fill="black"/>
<path d="M84.9376 20.644V14.3346H87.9521V26.0187H84.9376V24.71C84.221 25.8006 83.0603 26.3458 81.4557 26.3458C80.1783 26.3458 79.1189 25.9174 78.2776 25.0606C77.452 24.1882 77.0391 23.0042 77.0391 21.5086V14.3346H80.0536V21.1347C80.0536 21.8981 80.2562 22.4901 80.6612 22.9107C81.0818 23.3313 81.6505 23.5416 82.3671 23.5416C83.1616 23.5416 83.7847 23.3002 84.2365 22.8172C84.7039 22.3187 84.9376 21.5943 84.9376 20.644Z" fill="black"/>
<path d="M92.2084 12.9325C91.7098 12.9325 91.2736 12.7533 90.8997 12.395C90.5414 12.0211 90.3623 11.5849 90.3623 11.0864C90.3623 10.5879 90.5414 10.1517 90.8997 9.77775C91.2736 9.40386 91.7098 9.21692 92.2084 9.21692C92.7225 9.21692 93.1587 9.40386 93.517 9.77775C93.8909 10.1517 94.0778 10.5879 94.0778 11.0864C94.0778 11.5849 93.8909 12.0211 93.517 12.395C93.1587 12.7533 92.7225 12.9325 92.2084 12.9325ZM93.7273 26.0187H90.7128V14.3346H93.7273V26.0187Z" fill="black"/>
<path d="M101.583 10.3292V4.20503H104.687C104.936 4.20503 105.207 4.27695 105.5 4.42079C105.793 4.5591 106.042 4.77486 106.247 5.06807C106.457 5.35574 106.562 5.72087 106.562 6.16345C106.562 6.61156 106.454 6.99329 106.239 7.30862C106.023 7.61843 105.76 7.85355 105.45 8.01398C105.146 8.17442 104.858 8.25464 104.587 8.25464H102.347V7.25883H104.172C104.355 7.25883 104.551 7.16755 104.762 6.98499C104.977 6.80242 105.085 6.52858 105.085 6.16345C105.085 5.78726 104.977 5.53277 104.762 5.4C104.551 5.26723 104.366 5.20084 104.206 5.20084H102.928V10.3292H101.583ZM105.284 7.4414L106.811 10.3292H105.334L103.841 7.4414H105.284ZM103.907 13.9805C102.989 13.9805 102.128 13.809 101.326 13.466C100.524 13.123 99.8185 12.6472 99.2099 12.0387C98.6014 11.4301 98.1256 10.7248 97.7826 9.92261C97.4396 9.12043 97.2681 8.26017 97.2681 7.34182C97.2681 6.42346 97.4396 5.5632 97.7826 4.76102C98.1256 3.95885 98.6014 3.25349 99.2099 2.64494C99.8185 2.0364 100.524 1.56062 101.326 1.21762C102.128 0.874625 102.989 0.703125 103.907 0.703125C104.825 0.703125 105.686 0.874625 106.488 1.21762C107.29 1.56062 107.995 2.0364 108.604 2.64494C109.212 3.25349 109.688 3.95885 110.031 4.76102C110.374 5.5632 110.546 6.42346 110.546 7.34182C110.546 8.26017 110.374 9.12043 110.031 9.92261C109.688 10.7248 109.212 11.4301 108.604 12.0387C107.995 12.6472 107.29 13.123 106.488 13.466C105.686 13.809 104.825 13.9805 103.907 13.9805ZM103.907 12.3872C104.836 12.3872 105.683 12.1604 106.446 11.7068C107.21 11.2531 107.818 10.6446 108.272 9.88112C108.725 9.11767 108.952 8.27123 108.952 7.34182C108.952 6.4124 108.725 5.56597 108.272 4.80252C107.818 4.03907 107.21 3.43052 106.446 2.97688C105.683 2.52323 104.836 2.29641 103.907 2.29641C102.977 2.29641 102.131 2.52323 101.368 2.97688C100.604 3.43052 99.9955 4.03907 99.5418 4.80252C99.0882 5.56597 98.8614 6.4124 98.8614 7.34182C98.8614 8.27123 99.0882 9.11767 99.5418 9.88112C99.9955 10.6446 100.604 11.2531 101.368 11.7068C102.131 12.1604 102.977 12.3872 103.907 12.3872Z" fill="black"/>
</g>
<defs>
<clipPath id="clip0_2995_9427">
<rect width="111" height="31" fill="white"/>
</clipPath>
</defs>
</svg>
